<svg width="306" height="98" fill="none" xmlns="http://www.w3.org/2000/svg"><path d="M57.83 29.94c-2.83 0-5.13-2.31-5.13-5.17s2.3-5.17 5.13-5.17 5.13 2.31 5.13 5.17-2.3 5.17-5.13 5.17zm-28.91 0c-2.83 0-5.13-2.31-5.13-5.17s2.3-5.17 5.13-5.17 5.13 2.31 5.13 5.17-2.3 5.17-5.13 5.17zM43.37 0C19.42 0 0 16.31 0 36.43c0 10.98 5.84 20.86 14.99 27.54.73.53 1.21 1.39 1.21 2.38 0 .32-.07.62-.15.93-.73 2.75-1.9 7.14-1.95 7.35-.09.35-.23.7-.23 1.07 0 .8.65 1.46 1.45 1.46.31 0 .57-.12.83-.27l9.5-5.53c.71-.41 1.47-.67 2.3-.67.44 0 .87.07 1.28.19 4.43 1.28 9.21 2 14.16 2 .8 0 1.59-.02 2.38-.06-.94-2.84-1.46-5.83-1.46-8.93 0-18.35 17.71-33.23 39.56-33.23.79 0 .99.03 1.77.06C82.36 13.31 65.01 0 43.37 0z" fill="#fff"/><path d="M95.9 58.71c-2.49 0-4.51-2.04-4.51-4.55s2.02-4.55 4.51-4.55c2.49 0 4.51 2.04 4.51 4.55s-2.02 4.55-4.51 4.55zm-24.1 0c-2.49 0-4.51-2.04-4.51-4.55s2.02-4.55 4.51-4.55c2.49 0 4.51 2.04 4.51 4.55s-2.02 4.55-4.51 4.55zm35.7 28.11c7.62-5.57 12.49-13.8 12.49-22.95 0-16.77-16.18-30.36-36.14-30.36S47.7 47.1 47.7 63.87s16.18 30.36 36.15 30.36c4.12 0 8.11-.59 11.8-1.66.34-.1.69-.16 1.06-.16.69 0 1.32.21 1.92.56l7.91 4.6c.22.13.44.23.7.23.67 0 1.21-.54 1.21-1.21 0-.3-.12-.6-.19-.89-.05-.17-1.02-3.84-1.63-6.12-.07-.26-.13-.51-.13-.77 0-.82.4-1.54 1.01-1.98M142.52 44.33c4.25-3.4 8.13-7.11 11.65-11.13.79-.68 1.62-1.02 2.47-1.02.85 0 1.6.28 2.25.85.65.57.98 1.28.98 2.12v47.43c0 .4-.11.71-.34.94-.23.23-.48.34-.76.34h-4.25c-.34 0-.62-.11-.85-.34-.23-.23-.34-.54-.34-.94V43.23c-2.61 2.78-5.1 5.13-7.48 7.06-.11.11-.23.17-.34.17-.17 0-.34-.17-.51-.51l-2.64-4.5c-.23-.45-.17-.82.17-1.1l-.01-.02zm1.36-17.17c0-.28.11-.51.34-.68 4.99-3.57 9.32-7.65 13-12.24.45-.45.85-.48 1.19-.08l3.23 3.15c.4.34.45.74.17 1.19-4.08 4.93-8.75 9.38-14.02 13.34-.23.11-.4.17-.51.17-.28 0-.51-.14-.68-.42l-2.55-3.91c-.11-.23-.17-.4-.17-.51v-.01zm24.4 34.25v-6.29c0-1.87.91-2.8 2.72-2.8h12.83c1.53 0 2.65.3 3.36.89.71.6 1.06 1.74 1.06 3.44v11.81l.94 14.53v.17c0 .23-.08.4-.25.51-.17.11-.37.17-.6.17h-4.33c-.57 0-.88-.25-.94-.77l-.93-14.45v-9.6c0-.51-.28-.77-.85-.77h-6.04c-.34 0-.57.07-.68.21-.11.14-.17.38-.17.72v3.74c0 5.55-1.3 12.27-3.91 20.14-.17.51-.51.77-1.02.77h-4.68c-.28 0-.5-.1-.64-.3-.14-.2-.16-.44-.04-.72 2.78-8.73 4.17-15.87 4.17-21.42v.02zm-3.23-44.29c0-.57.28-.85.85-.85h3.91c.57 0 .85.28.85.85l.08 9.95c0 .45.1.78.3.98.2.2.52.3.98.3h3.66V13.14c0-.57.25-.85.76-.85h4.17c.51 0 .77.28.77.85v15.21h3.74c.4 0 .67-.1.81-.3.14-.2.21-.52.21-.98v-9.95c0-.57.28-.85.85-.85h3.74c.57 0 .85.28.85.85v14.11c0 .79-.23 1.42-.68 1.87-.45.45-1.08.68-1.87.68h-21.42c-.79 0-1.42-.23-1.87-.68-.45-.45-.68-1.08-.68-1.87V17.12h-.01zm1.36 23.38c.23-.23.51-.34.85-.34h22.35c.4 0 .71.11.94.34.23.23.34.54.34.94v3.31c0 .4-.11.71-.34.94-.23.23-.54.34-.94.34h-22.35c-.34 0-.62-.11-.85-.34-.23-.23-.34-.54-.34-.94v-3.31c0-.4.11-.71.34-.94zm36.04 23.38c-2.61-5.84-4.59-12.81-5.95-20.91l-4.42-2.12c-.51-.28-.65-.65-.42-1.1 1.81-3.63 3.4-7.86 4.76-12.71 1.36-4.85 2.35-9.31 2.98-13.39.06-.4.2-.71.42-.94.23-.23.54-.31.94-.25l3.4.34c.85.11 1.25.57 1.19 1.36-.51 2.95-1.19 6.35-2.04 10.2h15.81c.57 0 .85.28.85.85v4.59c0 .57-.28.85-.85.85h-3.48c-.34 7.14-.99 13.3-1.96 18.49-.96 5.18-2.44 9.99-4.42 14.41 3 5.5 7.08 10.82 12.24 15.98.17.17.25.34.25.51 0 .28-.14.51-.43.68l-3.82 3.4c-.11.11-.28.17-.51.17-.28 0-.51-.11-.68-.34-4.48-4.82-7.96-9.38-10.46-13.69-2.55 4.25-5.92 8.78-10.12 13.6-.34.45-.74.51-1.19.17l-3.99-3.31c-.4-.34-.43-.74-.09-1.19 5.21-5.04 9.21-10.26 11.99-15.64v-.01zm3.4-7.99c2.1-6.57 3.37-14.99 3.83-25.25h-7.91l-1.02 3.48c1.19 8.56 2.89 15.81 5.1 21.76v.01zM246.94 83.51c-.2.23-.47.34-.81.34h-4.42c-.68 0-1.02-.42-1.02-1.27v-42.5c-2.15 3.68-4.17 6.69-6.04 9.01-.17.23-.37.34-.6.34-.23 0-.42-.08-.59-.25l-4-2.89c-.34-.34-.34-.74 0-1.19 3.51-4.48 6.76-9.6 9.73-15.39 2.98-5.78 5.37-11.39 7.18-16.83.23-.51.6-.68 1.1-.51l4.76 1.36c.57.17.74.54.51 1.1-2.44 5.89-4.28 10.14-5.52 12.75v55c0 .4-.1.71-.3.94l.02-.01zm7.18-62.31c0-.57.28-.85.85-.85h21.08V13.3c0-.23.07-.43.21-.6.14-.17.3-.25.47-.25h5.44c.17 0 .33.08.47.25.14.17.21.37.21.6v7.05h21.42c.57 0 .85.28.85.85v4.5c0 .57-.28.85-.85.85h-49.3c-.57 0-.85-.28-.85-.85v-4.5zm3.66 40.21c0-1.36.37-2.41 1.1-3.15.73-.74 1.79-1.1 3.15-1.1h33.83c1.36 0 2.41.37 3.15 1.1.74.74 1.1 1.79 1.1 3.15v17.6c0 1.36-.37 2.41-1.1 3.15-.74.74-1.79 1.1-3.15 1.1h-33.83c-1.36 0-2.41-.37-3.15-1.1-.74-.74-1.1-1.79-1.1-3.15v-17.6zm1.19-27.88c0-.57.28-.85.85-.85h38.25c.57 0 .85.28.85.85v4.17c0 .57-.28.85-.85.85h-38.25c-.57 0-.85-.28-.85-.85v-4.17zm0 12.15c0-.57.28-.85.85-.85h38.25c.57 0 .85.28.85.85v4.17c0 .57-.28.85-.85.85h-38.25c-.57 0-.85-.28-.85-.85v-4.17zm6.21 31.45h27.46c.28 0 .51-.08.68-.25.17-.17.25-.37.25-.6V64.04c0-.23-.08-.43-.25-.6-.17-.17-.4-.25-.68-.25h-27.37c-.28 0-.51.08-.68.25-.17.17-.25.37-.25.6v12.24c0 .57.28.85.85.85h-.01z" fill="#fff"/></svg>